# xmcd CD database file
#
# Track frame offsets:
#	183
#	19355
#	39143
#	53525
#	77583
#	97550
#	116150
#	145953
#	169853
#	186108
#	202693
#	220490
#
# Disc length: 3130 seconds
#
# Revision: 0
# Processed by: cddbd v1.5.1PL0 Copyright (c) Steve Scherf et al.
# Submitted via: CDex 1.51
#
DISCID=950c380c
DTITLE=Andy J. Forest - N.O.LA.
DYEAR=1900
DGENRE=Blues
TTITLE0=Wideload Boogie
TTITLE1=Leavin' Louisiana
TTITLE2=Crazy and insane
TTITLE3=Livin' like a gypsy
TTITLE4=My last meal
TTITLE5=Feelin' no pain
TTITLE6=Voodoo Blues
TTITLE7=$10 bill
TTITLE8=Good luck and trouble
TTITLE9=Shlank
TTITLE10=Night song
TTITLE11=Crazy me
EXTD=
EXTT0=
EXTT1=
EXTT2=
EXTT3=
EXTT4=
EXTT5=
EXTT6=
EXTT7=
EXTT8=
EXTT9=
EXTT10=
EXTT11=
PLAYORDER=
